ModelForces
version=1
nRows=4
nColumns=94
inDegrees=yes

This file contains the forces exerted on a model during a simulation.

A force is a generalized force, meaning that it can be either a force (N) or a torque (Nm).

Units are S.I. units (second, meters, Newtons, ...)
Angles are in degrees.

endheader 
time	addbrev_l	addlong_l	addmagDist_l	addmagIsch_l	addmagMid_l	addmagProx_l	bflh_l	bfsh_l	edl_l	ehl_l	fdl_l	fhl_l	gaslat_l	gasmed_l	glmax1_l	glmax2_l	glmax3_l	glmed1_l	glmed2_l	glmed3_l	glmin1_l	glmin2_l	glmin3_l	grac_l	iliacus_l	perbrev_l	perlong_l	piri_l	psoas_l	recfem_l	sart_l	semimem_l	semiten_l	soleus_l	tfl_l	tibant_l	tibpost_l	vasint_l	vaslat_l	vasmed_l	addbrev_r	addlong_r	addmagDist_r	addmagIsch_r	addmagMid_r	addmagProx_r	bflh_r	bfsh_r	edl_r	ehl_r	fdl_r	fhl_r	gaslat_r	gasmed_r	glmax1_r	glmax2_r	glmax3_r	glmed1_r	glmed2_r	glmed3_r	glmin1_r	glmin2_r	glmin3_r	grac_r	iliacus_r	perbrev_r	perlong_r	piri_r	psoas_r	recfem_r	sart_r	semimem_r	semiten_r	soleus_r	tfl_r	tibant_r	tibpost_r	vasint_r	vaslat_r	vasmed_r	lumbar_extension	lumbar_bending	lumbar_rotation	arm_flex_l	arm_add_l	arm_rot_l	arm_flex_r	arm_add_r	arm_rot_r	elbow_flex_l	elbow_flex_r	pro_sup_l	pro_sup_r	
          7.35000000	          4.89904383	          4.73198257	         16.83611752	         27.75211523	          5.29976929	          7.92157692	         69.33442436	         33.41630254	         21.98708548	          1.74520262	         21.51674218	        108.15367194	         60.56868814	        103.21353194	         97.82946470	        291.59090132	         50.79199353	        387.65421891	        160.69440146	        166.91508394	         48.37953284	         48.08868080	         50.63133812	          2.67868392	         42.90112401	         43.10533663	         59.29285442	        156.35433452	        101.51460235	        651.46318954	         36.03879944	         61.90401179	         20.96432264	       3296.98362925	          0.00468572	         56.64081031	        218.46640989	        549.94553612	        573.77490686	       1038.87584448	         52.80955640	         88.86816298	          1.44257964	          0.00914033	         26.25111389	        164.16923787	         31.19395173	        227.57251303	        107.25398819	          1.12968687	          6.07132493	         22.51949016	          0.42611616	          2.19935475	         12.51299542	         54.07405678	          1.79054957	          5.24860424	          5.25473924	         18.52452253	          3.69149109	          7.90423640	          1.93386403	         32.61004798	        344.69701618	         16.48147076	         32.12164348	          2.04858512	        641.88181849	        267.25285393	        138.76005180	         56.50945410	         52.54457019	         -0.00021251	          0.00132080	         37.72089051	         34.07264372	         12.86302455	         38.90478963	         19.75581876	        -24.98151209	         25.84420125	        -82.41294307	         87.05571697	       -145.71763183	         97.43718137	        -68.45500704	       -128.03758220	        -30.82343121	          6.15227348	        116.43549271	         23.23907904	         -2.83965039	
          7.36000000	          4.67929271	          5.05326209	         15.26490310	         25.17256901	          4.99681809	          7.17067104	         46.26238254	         29.21381020	         16.51067181	          1.34539699	         11.74430819	         72.67650234	        261.52053586	        419.50773866	         81.42907740	        241.08592136	         44.06700580	        306.49297292	        146.45068927	        136.88444805	         37.87029730	         40.03676195	         71.92920511	          2.47494353	         37.78323033	          6.59959797	         38.99643288	          0.00500884	         92.58854112	        578.96061186	         29.91870310	         37.43937166	         17.38715784	       3213.53681169	         72.42346728	          0.00086300	        182.46251580	        483.78584995	        872.40144826	        892.22780411	         40.41489079	         67.34425270	          0.72810453	          0.00158533	         20.12549076	        129.61217393	         14.44538141	        230.59636276	        198.93316411	         38.69898115	          9.39303422	         23.85565989	          0.25342796	         -0.00013196	         11.62651755	         44.08270905	          1.39148591	          6.44915755	         13.89053469	         34.35411331	          4.13038294	         70.16997362	          2.11317257	         25.56327760	        265.84383362	         13.55350302	         27.02107747	          2.16818644	        496.46638128	        326.10306561	        197.32973916	         31.36322738	         31.97323128	          2.82990816	         91.92580076	         23.91436792	         39.45044239	         13.82226060	         41.50318642	         20.99410073	         14.53245165	         93.97789206	       -124.16852068	        116.90671362	       -149.18731205	        108.40880424	       -101.06052051	       -135.12991598	        -72.12634747	         35.37737408	        124.27393531	          5.21926524	         -2.13668150	
          7.37000000	          4.27087756	          0.00194092	         13.90210593	         23.23777075	          4.68083545	          6.39591853	         73.62090515	          4.63500156	         64.66137084	          0.00061859	         13.85860757	         77.79708104	         24.13978720	         33.22195986	         68.83990293	        204.44473399	         39.08838267	        234.90402924	        118.74078247	        113.82967481	         27.97306876	         27.54226175	         57.97567221	          2.11628391	          0.00180772	         83.31768880	         65.41742665	        226.64528229	          6.61974741	        482.09077024	         15.85306898	         62.71536030	         18.22013236	       3431.45025609	          0.00099471	        172.32921039	        127.00508957	        407.23828966	        329.52952742	        754.17453845	         24.30080438	         33.70071800	          0.00485628	          0.00462238	         11.22364999	         81.50505541	         26.02100090	        199.11734587	        213.57695083	         25.54378668	          7.81623567	         24.40269194	         -0.00001629	          0.00212465	         10.97893672	         39.96714368	          6.17364493	          8.97143796	         14.22815702	         35.22558981	          4.88704268	         69.17026232	          3.11785072	         15.88752400	        203.36308075	         10.86950265	         22.45797394	          4.04382092	        412.54905466	        264.03460558	        166.26869317	         24.40551985	         53.98119922	         -0.00028188	        105.23380846	         30.62660552	        158.84900659	         14.67960662	         43.82822523	         22.08218162	        -45.02415130	         14.78396967	        -92.62312078	         93.45101615	       -153.61429715	        108.04694677	        -76.39191480	       -142.11565085	         -2.99374915	         36.22820208	         75.29922759	          6.76407123	         -2.49223900	
          7.38000000	          5.11956380	        181.17411676	         12.08019321	         19.99542530	          4.35938378	          5.74484064	         45.92614273	        251.04878422	        115.42852084	         45.98999355	          0.00930428	         12.28571445	        184.31982065	        295.96899254	         56.20978724	        166.15066619	         32.31950407	        189.77108512	         95.06391295	         91.08785773	         41.81854234	         73.37748747	         55.92969060	         16.72258062	        606.87330817	         98.54188561	         92.87132519	        238.93620975	        848.49066986	        338.27879794	        153.57466539	         34.97748526	         12.87341802	          0.00013559	         65.16607329	        382.34916115	         69.03429907	        238.65243476	        629.44724817	        456.65495088	         16.78974979	         20.12617689	          0.86726094	          0.01573305	         15.09434348	         82.75054196	         20.46723196	        134.31436784	        230.22578483	         19.01525657	          6.70765900	         20.83779167	          0.36174651	          1.78786591	         10.13986841	         36.55682400	          4.53184322	         11.32419175	         13.77547533	         33.90501210	          5.39198092	         64.45653744	          3.87254364	         11.29509201	        160.51876551	          6.44479349	         15.28284433	          5.39783121	        186.63067214	        192.69992551	        136.07423890	          9.24067528	         45.13995064	         -0.00021828	        100.23059150	         81.87044844	        232.63102678	         14.31824766	         42.83133929	         21.61123905	       -108.39075576	        -30.65296680	        -19.11891262	         49.77821094	       -153.31131252	        119.73201676	        -33.78211863	       -144.03985651	         34.24407124	         65.81951255	         93.88121845	          4.43366399	         -2.57749966	
